<svg width="56" height="56" viewBox="0 0 56 56" fill="none" xmlns="http://www.w3.org/2000/svg">
<path d="M42.5679 28.25C42.5671 26.5577 43.1656 24.9199 44.2574 23.6269C45.3491 22.3338 46.8635 21.4692 48.5319 21.1864C48.8657 21.1304 49.1689 20.958 49.3877 20.6997C49.6065 20.4414 49.7267 20.114 49.727 19.7755V15.3636C49.727 14.6042 49.4253 13.8758 48.8883 13.3387C48.3512 12.8017 47.6229 12.5 46.8634 12.5H9.6361C8.87661 12.5 8.14824 12.8017 7.6112 13.3387C7.07416 13.8758 6.77246 14.6042 6.77246 15.3636V19.7794C6.77238 20.1179 6.89246 20.4456 7.1113 20.7039C7.33015 20.9623 7.63357 21.1346 7.96755 21.1902C9.6397 21.4688 11.1588 22.3315 12.2546 23.625C13.3503 24.9184 13.9517 26.5586 13.9517 28.2538C13.9517 29.949 13.3503 31.5892 12.2546 32.8827C11.1588 34.1761 9.6397 35.0389 7.96755 35.3175C7.63373 35.3734 7.33053 35.5458 7.11175 35.8041C6.89297 36.0624 6.77277 36.3898 6.77246 36.7283V41.1364C6.77246 41.8958 7.07416 42.6242 7.6112 43.1613C8.14824 43.6983 8.87661 44 9.6361 44H46.8634C47.6229 44 48.3512 43.6983 48.8883 43.1613C49.4253 42.6242 49.727 41.8958 49.727 41.1364V36.7206C49.7271 36.3821 49.607 36.0544 49.3882 35.7961C49.1693 35.5377 48.8659 35.3654 48.5319 35.3098C46.8641 35.0271 45.3502 34.163 44.2586 32.8708C43.167 31.5786 42.568 29.9416 42.5679 28.25Z" stroke="#E6552D" stroke-width="2.86364" stroke-linecap="round" stroke-linejoin="round"/>
<path d="M35.4092 38.2728V35.4092" stroke="#E6552D" stroke-width="2.86364" stroke-linecap="round" stroke-linejoin="round"/>
<path d="M35.4092 29.682V26.8184" stroke="#E6552D" stroke-width="2.86364" stroke-linecap="round" stroke-linejoin="round"/>
<path d="M35.4092 21.0912V18.2275" stroke="#E6552D" stroke-width="2.86364" stroke-linecap="round" stroke-linejoin="round"/>
<path d="M21.0908 38.2728V35.4092" stroke="#E6552D" stroke-width="2.86364" stroke-linecap="round" stroke-linejoin="round"/>
<path d="M21.0908 29.682V26.8184" stroke="#E6552D" stroke-width="2.86364" stroke-linecap="round" stroke-linejoin="round"/>
<path d="M21.0908 21.0912V18.2275" stroke="#E6552D" stroke-width="2.86364" stroke-linecap="round" stroke-linejoin="round"/>
</svg>
