<svg width="56" height="56" viewBox="0 0 56 56" fill="none" xmlns="http://www.w3.org/2000/svg">
<g clip-path="url(#clip0_7399_151393)">
<path d="M41.5105 17.9378H14.4606C13.811 17.9113 13.1739 18.1215 12.6677 18.5294C12.1615 18.9373 11.8205 19.515 11.7082 20.1554L7.87491 46.8258C7.85506 47.1919 7.91284 47.5581 8.04446 47.9003C8.17609 48.2425 8.37859 48.5531 8.63867 48.8115C8.89875 49.07 9.21054 49.2705 9.55359 49.4C9.89663 49.5295 10.2632 49.5849 10.6292 49.5628H45.3419C45.7078 49.585 46.0743 49.5295 46.4172 49.4C46.7602 49.2705 47.0719 49.0699 47.3318 48.8114C47.5917 48.5529 47.794 48.2424 47.9255 47.9002C48.0569 47.558 48.1144 47.1918 48.0942 46.8258L44.2609 20.1554C44.1487 19.5154 43.808 18.9379 43.3022 18.53C42.7963 18.1222 42.1597 17.9118 41.5105 17.9378Z" stroke="#E6552D" stroke-width="2.875" stroke-linecap="round" stroke-linejoin="round"/>
<path d="M35.0177 12.2968C34.7028 10.6521 33.8258 9.16815 32.5369 8.09918C31.248 7.03021 29.6274 6.44276 27.9529 6.4375C26.2866 6.44481 24.6743 7.02883 23.3899 8.09032C22.1055 9.15181 21.2282 10.6253 20.9072 12.2603" stroke="#E6552D" stroke-width="2.875" stroke-linecap="round" stroke-linejoin="round"/>
<path d="M33.0856 30.875L26.3389 39.8699L22.2354 35.7682" stroke="#E6552D" stroke-width="2.875" stroke-linecap="round" stroke-linejoin="round"/>
</g>
<defs>
<clipPath id="clip0_7399_151393">
<rect width="46" height="46" fill="white" transform="translate(5 5)"/>
</clipPath>
</defs>
</svg>
