<svg width="56" height="56" viewBox="0 0 56 56" fill="none" xmlns="http://www.w3.org/2000/svg">
<path d="M16.532 15.6762C15.6863 14.8293 14.3134 14.8293 13.4682 15.6762L2.63521 26.5093C1.78826 27.3562 1.78826 28.7272 2.63521 29.573L13.4682 40.406C13.8902 40.8298 14.4445 41.0414 14.9995 41.0414C15.5544 41.0414 16.1088 40.8298 16.5319 40.4072C17.3789 39.5603 17.3789 38.1892 16.5319 37.3435L7.2307 28.0418L16.5313 18.7412C17.3777 17.8942 17.3777 16.5232 16.5319 15.6762L16.532 15.6762Z" fill="#E6552D"/>
<path d="M39.4672 15.6761C38.6203 16.5231 38.6203 17.8941 39.4672 18.7399L48.7685 28.0416L39.4672 37.3422C38.6203 38.1891 38.6203 39.5602 39.4672 40.4059C39.8904 40.8297 40.4447 41.0413 40.9997 41.0413C41.5546 41.0413 42.109 40.8297 42.5321 40.4071L53.3652 29.5741C54.2121 28.7272 54.2121 27.3561 53.3652 26.5104L42.5321 15.6773C41.6858 14.8304 40.3135 14.8304 39.4672 15.6761L39.4672 15.6761Z" fill="#E6552D"/>
<path d="M32.8575 8.60559C31.6968 8.31723 30.5203 9.0215 30.2297 10.1823L21.5632 44.848C21.2731 46.0092 21.9786 47.1851 23.1399 47.4757C23.3164 47.5199 23.4936 47.541 23.6671 47.541C24.6379 47.541 25.5217 46.8833 25.7671 45.8986L34.4335 11.2329C34.7243 10.0728 34.0188 8.89574 32.8575 8.60557L32.8575 8.60559Z" fill="#E6552D"/>
</svg>
