<svg width="56" height="56" viewBox="0 0 56 56" fill="none" xmlns="http://www.w3.org/2000/svg">
<path d="M46.3541 43.9336L9.677 31.1422C9.07856 30.9334 8.55723 30.5486 8.18143 30.0382C7.80564 29.5278 7.59296 28.9157 7.57129 28.2822V24.8565C7.57388 24.2068 7.77774 23.5739 8.15484 23.0448C8.53193 22.5158 9.06371 22.1166 9.677 21.9022L46.3541 9.14221C46.5895 9.06267 46.8407 9.04012 47.0864 9.07641C47.3325 9.1127 47.566 9.20681 47.7684 9.35097C47.9711 9.49513 48.1365 9.68528 48.2512 9.90578C48.3659 10.1263 48.4265 10.3708 48.4284 10.6194V42.4565C48.4265 42.7051 48.3659 42.9496 48.2512 43.1699C48.1365 43.3906 47.9711 43.5807 47.7684 43.725C47.566 43.8689 47.3325 43.9632 47.0864 43.9993C46.8407 44.0358 46.5895 44.0132 46.3541 43.9336Z" stroke="#E6552D" stroke-width="3.14286" stroke-linecap="round" stroke-linejoin="round"/>
<path d="M32.6516 39.2206C32.387 41.4037 31.3001 43.4038 29.6124 44.8137C27.9247 46.2235 25.763 46.937 23.5677 46.8087C21.3723 46.6805 19.3084 45.7204 17.7962 44.1238C16.2841 42.5269 15.4374 40.414 15.4287 38.2149V33.2178" stroke="#E6552D" stroke-width="3.14286" stroke-linecap="round" stroke-linejoin="round"/>
</svg>
