<svg width="56" height="56" viewBox="0 0 56 56" fill="none" xmlns="http://www.w3.org/2000/svg">
<path d="M41.9 12.333H8.53333C6.85806 12.333 5.5 13.6911 5.5 15.3663V33.5663C5.5 35.2416 6.85806 36.5997 8.53333 36.5997H41.9C43.5752 36.5997 44.9333 35.2416 44.9333 33.5663V15.3663C44.9333 13.6911 43.5752 12.333 41.9 12.333Z" stroke="#E6552D" stroke-width="3.03333" stroke-linecap="round" stroke-linejoin="round"/>
<path d="M12.3247 19.9171C11.9059 19.9171 11.5664 19.5775 11.5664 19.1587C11.5664 18.7399 11.9059 18.4004 12.3247 18.4004" stroke="#E6552D" stroke-width="3.03333"/>
<path d="M12.3252 19.9171C12.744 19.9171 13.0835 19.5775 13.0835 19.1587C13.0835 18.7399 12.744 18.4004 12.3252 18.4004" stroke="#E6552D" stroke-width="3.03333"/>
<path d="M38.1079 30.5333C37.6891 30.5333 37.3496 30.1937 37.3496 29.7749C37.3496 29.3561 37.6891 29.0166 38.1079 29.0166" stroke="#E6552D" stroke-width="3.03333"/>
<path d="M38.1084 30.5333C38.5272 30.5333 38.8667 30.1937 38.8667 29.7749C38.8667 29.3561 38.5272 29.0166 38.1084 29.0166" stroke="#E6552D" stroke-width="3.03333"/>
<path d="M25.2171 30.5337C28.5677 30.5337 31.2837 27.8177 31.2837 24.4671C31.2837 21.1165 28.5677 18.4004 25.2171 18.4004C21.8665 18.4004 19.1504 21.1165 19.1504 24.4671C19.1504 27.8177 21.8665 30.5337 25.2171 30.5337Z" stroke="#E6552D" stroke-width="3.03333" stroke-linecap="round" stroke-linejoin="round"/>
<path d="M50.9996 21.4336V39.6336C50.9996 40.438 50.6801 41.2097 50.1112 41.7786C49.5424 42.3474 48.7707 42.6669 47.9663 42.6669H14.5996" stroke="#E6552D" stroke-width="3.03333" stroke-linecap="round" stroke-linejoin="round"/>
</svg>
