<svg width="56" height="56" viewBox="0 0 56 56" fill="none" xmlns="http://www.w3.org/2000/svg">
<path d="M23.5 52H10C8.40863 52 6.88249 51.3679 5.75749 50.2425C4.63214 49.1175 4 47.5914 4 46V16C4 14.4086 4.63214 12.8825 5.75749 11.7575C6.88249 10.6321 8.40863 10 10 10H23.5C25.0914 10 26.6175 10.6321 27.7425 11.7575C28.8679 12.8825 29.5 14.4086 29.5 16V46C29.5 47.5914 28.8679 49.1175 27.7425 50.2425C26.6175 51.3679 25.0914 52 23.5 52ZM10 13C9.20447 13 8.44137 13.3161 7.87857 13.8786C7.31607 14.4414 7 15.2045 7 16V46C7 46.7955 7.31607 47.5586 7.87857 48.1214C8.44141 48.6839 9.20449 49 10 49H23.5C24.2955 49 25.0586 48.6839 25.6214 48.1214C26.1839 47.5586 26.5 46.7955 26.5 46V16C26.5 15.2045 26.1839 14.4414 25.6214 13.8786C25.0586 13.3161 24.2955 13 23.5 13H10Z" fill="#E6552D"/>
<path d="M16.75 47.499C16.6529 47.51 16.5548 47.51 16.4574 47.499C16.3596 47.4829 16.2638 47.4554 16.1724 47.4166C16.082 47.3794 15.9967 47.3316 15.9176 47.274C15.8363 47.2224 15.7606 47.1618 15.6926 47.0938C15.6217 47.0235 15.5587 46.9455 15.5051 46.8615C15.4479 46.7825 15.4 46.6967 15.3625 46.6063C15.3237 46.5153 15.2959 46.4195 15.2801 46.3214C15.24 46.1285 15.24 45.9293 15.2801 45.7365C15.2959 45.6384 15.3237 45.5429 15.3625 45.4515C15.4 45.3611 15.4479 45.2758 15.5051 45.1964C15.5587 45.1124 15.6217 45.0344 15.6926 44.964C15.7606 44.8961 15.8363 44.8355 15.9176 44.7839C15.9967 44.7263 16.082 44.6788 16.1724 44.6416C16.2638 44.6028 16.3596 44.575 16.4574 44.5589C16.6506 44.5207 16.8494 44.5207 17.0426 44.5589C17.1381 44.575 17.2311 44.6028 17.3199 44.6416C17.4136 44.6768 17.502 44.7246 17.5824 44.7839C17.6637 44.8358 17.7391 44.8961 17.8074 44.964C17.8784 45.0344 17.9413 45.1124 17.9949 45.1964C18.0494 45.2774 18.0973 45.3625 18.1375 45.4515C18.175 45.5433 18.2028 45.6387 18.2199 45.7365C18.2601 45.9293 18.2601 46.1285 18.2199 46.3214C18.2028 46.4192 18.175 46.5146 18.1375 46.6063C18.0973 46.6954 18.0495 46.7808 17.9949 46.8615C17.9413 46.9455 17.8784 47.0235 17.8074 47.0938C17.7391 47.1618 17.6637 47.2224 17.5824 47.274C17.502 47.3332 17.4136 47.3811 17.3199 47.4166C17.2311 47.4554 17.1381 47.4829 17.0426 47.499C16.9452 47.51 16.8471 47.51 16.75 47.499H16.75Z" fill="#E6552D"/>
<path d="M46 52H22V49H46C46.7955 49 47.5586 48.6839 48.1214 48.1214C48.6839 47.5586 49 46.7955 49 46V10C49 9.20447 48.6839 8.44137 48.1214 7.87857C47.5586 7.31607 46.7955 7 46 7H22C21.2045 7 20.4414 7.31607 19.8786 7.87857C19.3161 8.44141 19 9.20449 19 10V11.5H16V10C16 8.40863 16.6321 6.88249 17.7575 5.75749C18.8825 4.63214 20.4086 4 22 4H46C47.5914 4 49.1175 4.63214 50.2425 5.75749C51.3679 6.88249 52 8.40863 52 10V46C52 47.5914 51.3679 49.1175 50.2425 50.2425C49.1175 51.3679 47.5914 52 46 52Z" fill="#E6552D"/>
<path d="M34 47.5003C33.9029 47.5113 33.8048 47.5113 33.7074 47.5003C33.6096 47.4842 33.5138 47.4568 33.4224 47.4179C33.3334 47.3777 33.2483 47.3302 33.1676 47.2753C33.0843 47.2234 33.0086 47.1604 32.9426 47.0878C32.87 47.0215 32.807 46.9458 32.7551 46.8628C32.7006 46.7821 32.6527 46.6967 32.6125 46.6076C32.5747 46.5162 32.5469 46.4205 32.5301 46.3227C32.49 46.1299 32.49 45.9306 32.5301 45.7378C32.5469 45.64 32.5747 45.5446 32.6125 45.4529C32.6527 45.3641 32.7006 45.2788 32.7551 45.1977C32.807 45.1147 32.87 45.039 32.9426 44.9727C33.0086 44.9004 33.0843 44.8371 33.1676 44.7852C33.2483 44.7306 33.3337 44.6828 33.4224 44.6429C33.5138 44.6041 33.6096 44.5763 33.7074 44.5602C34.1982 44.4641 34.7045 44.6188 35.0574 44.9727C35.13 45.039 35.193 45.1147 35.2449 45.1977C35.2994 45.2787 35.3473 45.3638 35.3875 45.4529C35.425 45.5446 35.4528 45.64 35.4699 45.7378C35.5101 45.9306 35.5101 46.1299 35.4699 46.3227C35.4528 46.4205 35.425 46.5159 35.3875 46.6076C35.3473 46.6967 35.2995 46.7821 35.2449 46.8628C35.193 46.9458 35.13 47.0215 35.0574 47.0878C34.7728 47.3587 34.3931 47.5066 34 47.5003L34 47.5003Z" fill="#E6552D"/>
</svg>
