<svg width="56" height="56" viewBox="0 0 56 56" fill="none" xmlns="http://www.w3.org/2000/svg">
<path d="M14.4167 39.3168H13.0333C11.5658 39.3168 10.1584 38.7338 9.12068 37.6961C8.08297 36.6584 7.5 35.251 7.5 33.7835V28.2501C7.5 26.7826 8.08297 25.3752 9.12068 24.3375C10.1584 23.2998 11.5658 22.7168 13.0333 22.7168H14.4167C14.7835 22.7168 15.1354 22.8625 15.3948 23.122C15.6543 23.3814 15.8 23.7332 15.8 24.1001V37.9335C15.8 38.3003 15.6543 38.6522 15.3948 38.9116C15.1354 39.1711 14.7835 39.3168 14.4167 39.3168Z" stroke="#E6552D" stroke-width="3" stroke-linecap="round" stroke-linejoin="round"/>
<path d="M43.4669 39.3168H42.0835C41.7166 39.3168 41.3648 39.1711 41.1054 38.9116C40.8459 38.6522 40.7002 38.3003 40.7002 37.9335V24.1001C40.7002 23.7332 40.8459 23.3814 41.1054 23.122C41.3648 22.8625 41.7166 22.7168 42.0835 22.7168H43.4669C44.9344 22.7168 46.3418 23.2998 47.3795 24.3375C48.4172 25.3752 49.0002 26.7826 49.0002 28.2501V33.7835C49.0002 35.251 48.4172 36.6584 47.3795 37.6961C46.3418 38.7338 44.9344 39.3168 43.4669 39.3168Z" stroke="#E6552D" stroke-width="3" stroke-linecap="round" stroke-linejoin="round"/>
<path d="M13.0332 22.7167C13.0332 18.681 14.6364 14.8105 17.4901 11.9569C20.3437 9.10318 24.2142 7.5 28.2499 7.5C32.2856 7.5 36.156 9.10318 39.0097 11.9569C41.8634 14.8105 43.4665 18.681 43.4665 22.7167" stroke="#E6552D" stroke-width="3" stroke-linecap="round" stroke-linejoin="round"/>
<path d="M33.7832 46.2331H37.9332C39.4007 46.2331 40.8082 45.6501 41.8459 44.6124C42.8836 43.5747 43.4665 42.1673 43.4665 40.6997V39.3164" stroke="#E6552D" stroke-width="3" stroke-linecap="round" stroke-linejoin="round"/>
<path d="M31.0167 49.0001H28.2501C27.5163 49.0001 26.8126 48.7086 26.2937 48.1898C25.7749 47.6709 25.4834 46.9672 25.4834 46.2335C25.4834 45.4997 25.7749 44.796 26.2937 44.2771C26.8126 43.7583 27.5163 43.4668 28.2501 43.4668H31.0167C31.7505 43.4668 32.4542 43.7583 32.9731 44.2771C33.4919 44.796 33.7834 45.4997 33.7834 46.2335C33.7834 46.9672 33.4919 47.6709 32.9731 48.1898C32.4542 48.7086 31.7505 49.0001 31.0167 49.0001Z" stroke="#E6552D" stroke-width="3" stroke-linecap="round" stroke-linejoin="round"/>
</svg>
