<svg width="56" height="56" viewBox="0 0 56 56" fill="none" xmlns="http://www.w3.org/2000/svg">
<path fill-rule="evenodd" clip-rule="evenodd" d="M48.5483 17.7884L47.096 15.2681C45.8673 13.1357 43.1444 12.4 41.009 13.6236V13.6236C39.9925 14.2224 38.7796 14.3923 37.6377 14.0958C36.4959 13.7993 35.5188 13.0608 34.9221 12.0431C34.5381 11.3963 34.3319 10.6595 34.324 9.90734V9.90734C34.3587 8.70144 33.9037 7.53286 33.0628 6.66781C32.2219 5.80277 31.0667 5.31493 29.8603 5.31543H26.9343C25.7524 5.31542 24.6192 5.78639 23.7854 6.62412C22.9517 7.46186 22.4862 8.5973 22.4919 9.7792V9.7792C22.4568 12.2194 20.4685 14.1791 18.0281 14.1789C17.2759 14.1711 16.5392 13.9648 15.8923 13.5809V13.5809C13.7569 12.3573 11.034 13.0929 9.80535 15.2254L8.24624 17.7884C7.01905 19.9182 7.7447 22.6393 9.86943 23.8753V23.8753C11.2505 24.6727 12.1013 26.1463 12.1013 27.7411C12.1013 29.3358 11.2505 30.8094 9.86943 31.6068V31.6068C7.7474 32.8344 7.02096 35.549 8.24624 37.6724V37.6724L9.71992 40.214C10.2956 41.2527 11.2615 42.0193 12.4039 42.3439C13.5463 42.6686 14.7709 42.5247 15.8069 41.944V41.944C16.8253 41.3497 18.0389 41.1869 19.1779 41.4917C20.3169 41.7965 21.287 42.5437 21.8725 43.5671C22.2564 44.214 22.4627 44.9508 22.4705 45.7029V45.7029C22.4705 48.1682 24.469 50.1667 26.9343 50.1667H29.8603C32.3172 50.1667 34.3123 48.1812 34.324 45.7243V45.7243C34.3183 44.5387 34.7868 43.4 35.6251 42.5616C36.4635 41.7232 37.6022 41.2548 38.7878 41.2605C39.5382 41.2806 40.2719 41.486 40.9236 41.8585V41.8585C43.0534 43.0857 45.7746 42.3601 47.0105 40.2353V40.2353L48.5483 37.6724C49.1435 36.6507 49.3069 35.4339 49.0022 34.2915C48.6976 33.149 47.95 32.1751 46.9251 31.5855V31.5855C45.9002 30.9958 45.1527 30.0219 44.848 28.8794C44.5433 27.737 44.7067 26.5202 45.3019 25.4985C45.689 24.8227 46.2493 24.2624 46.9251 23.8753V23.8753C49.0371 22.64 49.761 19.9347 48.5483 17.8097V17.8097V17.7884Z" stroke="#E6552D" stroke-width="3.5" stroke-linecap="round" stroke-linejoin="round"/>
<circle cx="28.4079" cy="27.7409" r="6.15103" stroke="#E6552D" stroke-width="3.5" stroke-linecap="round" stroke-linejoin="round"/>
</svg>
