<svg width="56" height="56" viewBox="0 0 56 56" fill="none" xmlns="http://www.w3.org/2000/svg">
<path d="M28 4C14.7443 4 4 14.7443 4 28C4 41.2557 14.7443 52 28 52C41.2557 52 52 41.2557 52 28C52 14.7443 41.2557 4 28 4ZM34.0961 13H21.9024C23.6214 9.24863 25.873 7 27.9985 7C30.1239 7 32.3771 9.24863 34.0961 13ZM34.7259 8.125C37.7363 9.14791 40.444 10.8236 42.6685 13H37.3586C36.6069 11.1264 35.722 9.475 34.7259 8.125ZM19.0359 26.5004C19.1678 22.5569 19.7993 18.978 20.7535 16.0004H35.2469C36.2009 18.978 36.834 22.5569 36.9659 26.5004H19.0359ZM36.9656 29.5004C36.8337 33.444 36.2005 37.0229 35.2466 40.0004H20.7532C19.7993 37.0229 19.1678 33.444 19.0355 29.5004H28.0006H36.9656ZM18.6416 13.0004H13.3317C15.5562 10.8241 18.2636 9.14834 21.2743 8.12543C20.2782 9.47543 19.3933 11.1268 18.6416 13.0004ZM17.6187 16.0004C16.7127 19.125 16.1549 22.6888 16.0377 26.5004H7.0754C7.35297 22.6138 8.67749 19.0199 10.7909 16.0004H17.6187ZM16.0377 29.5004C16.1545 33.3121 16.7127 36.8759 17.6187 40.0004H10.7907C8.6786 36.981 7.35277 33.3871 7.07515 29.5004H16.0377ZM18.6416 43.0004C19.3929 44.8741 20.2782 46.5254 21.274 47.8754C18.2636 46.8525 15.5562 45.1768 13.3317 43.0004H18.6416ZM21.9041 43.0004H34.0961C32.3771 46.7518 30.1271 49.0004 28.0016 49.0004C25.8761 49.0004 23.6231 46.7518 21.9041 43.0004ZM37.3583 43.0004H42.6683C40.4437 45.1768 37.7363 46.8525 34.7256 47.8754C35.7217 46.5254 36.6066 44.8741 37.3583 43.0004ZM38.3813 40.0004C39.2873 36.8759 39.8451 33.3121 39.9623 29.5004H48.9263C48.6487 33.3871 47.3242 36.981 45.2094 40.0004H38.3813ZM39.9623 26.5004C39.8454 22.6888 39.2886 19.125 38.3813 16.0004H45.2093C47.3214 19.0199 48.6489 22.6138 48.9261 26.5004H39.9623Z" fill="#E6552D"/>
</svg>
