<svg width="56" height="56" viewBox="0 0 56 56" fill="none" xmlns="http://www.w3.org/2000/svg">
<path d="M46.3745 9.74316L42.598 10.1632C39.6359 10.4924 36.8741 11.8199 34.7667 13.9274L17.6045 31.0897L25.0245 38.5132L42.1902 21.3509C44.2984 19.2441 45.6261 16.482 45.9545 13.5197L46.3745 9.74316Z" stroke="#E6552D" stroke-width="2.625" stroke-linecap="round" stroke-linejoin="round"/>
<path d="M17.6043 31.0881L11.2658 28.9741C11.0535 28.9037 10.8628 28.78 10.7119 28.615C10.5609 28.45 10.4546 28.2491 10.4032 28.0314C10.3518 27.8137 10.357 27.5865 10.4182 27.3714C10.4795 27.1563 10.5947 26.9604 10.753 26.8024L11.159 26.3964C12.5378 25.0174 14.2733 24.0496 16.1711 23.6014C18.0689 23.1532 20.054 23.2424 21.904 23.8589L24.1003 24.5904L17.6043 31.0881Z" stroke="#E6552D" stroke-width="2.625" stroke-linecap="round" stroke-linejoin="round"/>
<path d="M17.6043 31.0881L11.2658 28.9741C11.0535 28.9037 10.8628 28.78 10.7119 28.615C10.5609 28.45 10.4546 28.2491 10.4032 28.0314C10.3518 27.8137 10.357 27.5865 10.4182 27.3714C10.4795 27.1563 10.5947 26.9604 10.753 26.8024L11.159 26.3964C12.5378 25.0174 14.2733 24.0496 16.1711 23.6014C18.0689 23.1532 20.054 23.2424 21.904 23.8589L24.1003 24.5904L17.6043 31.0881Z" stroke="#E6552D" stroke-width="2.625" stroke-linecap="round" stroke-linejoin="round"/>
<path d="M25.0244 38.5117L27.1384 44.8502C27.2089 45.0624 27.3325 45.2531 27.4976 45.4041C27.6626 45.5551 27.8635 45.6613 28.0812 45.7127C28.2988 45.7641 28.5261 45.7589 28.7412 45.6977C28.9563 45.6365 29.1522 45.5212 29.3102 45.3629L29.7179 44.9569C31.0966 43.578 32.0641 41.8424 32.512 39.9446C32.9598 38.0468 32.8704 36.0617 32.2537 34.2119L31.5257 32.0244L25.0244 38.5117Z" stroke="#E6552D" stroke-width="2.625" stroke-linecap="round" stroke-linejoin="round"/>
<path d="M25.0244 38.5117L27.1384 44.8502C27.2089 45.0624 27.3325 45.2531 27.4976 45.4041C27.6626 45.5551 27.8635 45.6613 28.0812 45.7127C28.2988 45.7641 28.5261 45.7589 28.7412 45.6977C28.9563 45.6365 29.1522 45.5212 29.3102 45.3629L29.7179 44.9569C31.0966 43.578 32.0641 41.8424 32.512 39.9446C32.9598 38.0468 32.8704 36.0617 32.2537 34.2119L31.5257 32.0244L25.0244 38.5117Z" stroke="#E6552D" stroke-width="2.625" stroke-linecap="round" stroke-linejoin="round"/>
<path d="M20.6138 39.4419C20.6145 39.959 20.5129 40.4712 20.315 40.9491C20.1171 41.4269 19.8267 41.8609 19.4605 42.2261C17.924 43.7626 10.1855 45.9379 10.1855 45.9379C10.1855 45.9379 12.3608 38.1941 13.8973 36.6629C14.5723 35.9863 15.4706 35.5788 16.4243 35.5166" stroke="#E6552D" stroke-width="2.625" stroke-linecap="round" stroke-linejoin="round"/>
</svg>
