<svg width="56" height="56" viewBox="0 0 56 56" fill="none" xmlns="http://www.w3.org/2000/svg">
<g clip-path="url(#clip0_7399_151312)">
<path d="M41.8875 21.125C42.1654 19.7651 42.8479 18.5209 43.8454 17.5558C44.843 16.5906 46.109 15.9495 47.4773 15.7167C47.7978 15.6633 48.0889 15.4981 48.299 15.2504C48.5091 15.0027 48.6246 14.6885 48.625 14.3637V10.125C48.625 9.39565 48.3353 8.69618 47.8195 8.18046C47.3038 7.66473 46.6043 7.375 45.875 7.375H10.125C9.39566 7.375 8.69618 7.66473 8.18046 8.18046C7.66473 8.69618 7.375 9.39565 7.375 10.125V14.3673C7.37462 14.6924 7.48986 15.0069 7.70012 15.2548C7.91037 15.5027 8.20193 15.6677 8.52267 15.7203C10.1285 15.9879 11.5873 16.8164 12.6396 18.0585C13.6918 19.3006 14.2694 20.8757 14.2694 22.5037C14.2694 24.1316 13.6918 25.7067 12.6396 26.9488C11.5873 28.1909 10.1285 29.0195 8.52267 29.287C8.20209 29.3407 7.91093 29.5063 7.70083 29.7543C7.49073 30.0024 7.37529 30.3168 7.375 30.6418V34.875C7.375 35.6043 7.66473 36.3038 8.18046 36.8195C8.69618 37.3353 9.39566 37.625 10.125 37.625H21.125" stroke="#E6552D" stroke-width="2.75" stroke-linecap="round" stroke-linejoin="round"/>
<path d="M21.125 32.125V29.375" stroke="#E6552D" stroke-width="2.75" stroke-linecap="round" stroke-linejoin="round"/>
<path d="M21.125 23.875V21.125" stroke="#E6552D" stroke-width="2.75" stroke-linecap="round" stroke-linejoin="round"/>
<path d="M21.125 15.625V12.875" stroke="#E6552D" stroke-width="2.75" stroke-linecap="round" stroke-linejoin="round"/>
<path d="M26.625 37.625C26.625 40.5424 27.7839 43.3403 29.8468 45.4032C31.9097 47.4661 34.7076 48.625 37.625 48.625C40.5424 48.625 43.3403 47.4661 45.4032 45.4032C47.4661 43.3403 48.625 40.5424 48.625 37.625C48.625 34.7076 47.4661 31.9097 45.4032 29.8468C43.3403 27.7839 40.5424 26.625 37.625 26.625C34.7076 26.625 31.9097 27.7839 29.8468 29.8468C27.7839 31.9097 26.625 34.7076 26.625 37.625Z" stroke="#E6552D" stroke-width="2.75" stroke-linecap="round" stroke-linejoin="round"/>
<path d="M42.487 37.6238H37.625V32.7637" stroke="#E6552D" stroke-width="2.75" stroke-linecap="round" stroke-linejoin="round"/>
</g>
<defs>
<clipPath id="clip0_7399_151312">
<rect width="44" height="44" fill="white" transform="translate(6 6)"/>
</clipPath>
</defs>
</svg>
