<svg width="56" height="56" viewBox="0 0 56 56" fill="none" xmlns="http://www.w3.org/2000/svg">
<path d="M36.667 25.6636C40.593 25.6636 43.7751 22.4814 43.7751 18.5554C43.7751 14.6316 40.593 11.4473 36.667 11.4473" stroke="#E6552D" stroke-width="3.23391" stroke-linecap="round" stroke-linejoin="round"/>
<path d="M39.9355 33.3877C41.1084 33.4675 42.2726 33.6356 43.4217 33.89C45.0149 34.207 46.9337 34.8602 47.615 36.2896C48.0505 37.2059 48.0505 38.2731 47.615 39.1893C46.9359 40.6187 45.0149 41.272 43.4217 41.5997" stroke="#E6552D" stroke-width="3.23391" stroke-linecap="round" stroke-linejoin="round"/>
<path fill-rule="evenodd" clip-rule="evenodd" d="M22.8074 34.918C30.7628 34.918 37.5584 36.1231 37.5584 40.9374C37.5584 45.7537 30.8059 46.9999 22.8074 46.9999C14.852 46.9999 8.05859 45.7969 8.05859 40.9805C8.05859 36.1641 14.8089 34.918 22.8074 34.918Z" stroke="#E6552D" stroke-width="3.23391" stroke-linecap="round" stroke-linejoin="round"/>
<path fill-rule="evenodd" clip-rule="evenodd" d="M22.8081 28.0461C17.5605 28.0461 13.3564 23.8398 13.3564 18.5923C13.3564 13.3469 17.5605 9.14062 22.8081 9.14062C28.0557 9.14062 32.2619 13.3469 32.2619 18.5923C32.2619 23.8398 28.0557 28.0461 22.8081 28.0461Z" stroke="#E6552D" stroke-width="3.23391" stroke-linecap="round" stroke-linejoin="round"/>
</svg>
