<svg width="56" height="56" viewBox="0 0 56 56" fill="none" xmlns="http://www.w3.org/2000/svg">
<path d="M18.5397 9.61625C18.5397 8.75674 19.1931 8.08824 20.0332 8.08824H35.0615C35.9016 8.08824 36.555 8.75674 36.555 9.61625V13.4363H39.542V9.61625C39.542 7.03774 37.4884 5.03223 35.0615 5.03223H20.0332C17.5129 5.03223 15.5527 7.13324 15.5527 9.61625V13.3408V34.9239H18.5397V9.61625V9.61625Z" fill="#E85E37"/>
<path d="M34.3151 37.2192H9.57911C8.73902 37.2192 8.08562 36.5507 8.08562 35.6912V33.3037C9.95249 32.2532 11.0726 30.1522 11.0726 28.0512C11.0726 25.8547 9.95249 23.8492 8.08562 22.7987V20.4112C8.08562 19.5517 8.73902 18.8832 9.57911 18.8832H13.3128V15.8271H9.57911C7.05884 15.8271 5.09863 17.9282 5.09863 20.4112V24.8042L6.12541 25.1862C7.33887 25.6637 8.08562 26.8097 8.08562 28.0512C8.08562 29.2927 7.24553 30.5342 6.12541 30.9162L5.09863 31.2982V35.6912C5.09863 38.2698 7.15219 40.2753 9.57911 40.2753H34.3151V37.2192Z" fill="#E85E37"/>
<path d="M45.5163 15.7285H20.7803V18.7845H45.5163C46.3563 18.7845 47.0097 19.453 47.0097 20.3125V22.7C45.1429 23.7506 44.0228 25.8516 44.0228 27.9526C44.0228 30.1491 45.1429 32.1546 47.0097 33.2051V35.5926C47.0097 36.4521 46.3563 37.1206 45.5163 37.1206H41.7825V40.1766H45.5163C48.0365 40.1766 49.9967 38.0756 49.9967 35.5926V31.1996L48.97 30.8176C47.7565 30.3401 47.0097 29.1941 47.0097 27.9526C47.0097 26.7111 47.8498 25.4696 48.97 25.0876L49.9967 24.7056V20.3125C50.0901 17.8295 48.0365 15.7285 45.5163 15.7285Z" fill="#E85E37"/>
<path d="M36.555 46.385C36.555 47.2445 35.9016 47.913 35.0615 47.913H20.0332C19.1931 47.913 18.5397 47.2445 18.5397 46.385V42.565H15.5527V46.385C15.5527 48.9635 17.6063 50.969 20.0332 50.969H35.0615C37.5818 50.969 39.542 48.868 39.542 46.385V21.1729H36.555V46.385V46.385Z" fill="#E85E37"/>
<path d="M26.1006 44.8561C26.1006 45.7156 26.754 46.3841 27.5941 46.3841C28.4342 46.3841 29.0876 45.7156 29.0876 44.8561C29.0876 43.9966 28.4342 43.3281 27.5941 43.3281C26.754 43.3281 26.1006 44.0921 26.1006 44.8561Z" fill="#E85E37"/>
<path d="M23.4867 9.61523C23.3 9.61523 23.1133 9.80623 23.1133 9.99724C23.1133 10.1882 23.3 10.3792 23.4867 10.3792H31.7009C31.8876 10.3792 32.0742 10.1882 32.0742 9.99724C32.0742 9.80623 31.8876 9.61523 31.7009 9.61523H23.4867Z" fill="#E85E37"/>
</svg>
